<?xml version="1.0" encoding="UTF-8"?><svg id="Layer_1" xmlns="http://www.w3.org/2000/svg" xmlns:xlink="http://www.w3.org/1999/xlink" viewBox="0 0 1200 1200"><defs><style>.cls-1{fill:url(#Peach-5);}.cls-2{fill:url(#Peach-4);}.cls-3{fill:url(#Peach-7);}.cls-4{fill:url(#Peach-6);}.cls-5{fill:url(#Peach-3);}.cls-6{fill:url(#Peach-2);}.cls-7{fill:url(#Peach);}</style><linearGradient id="Peach" x1="513.43" y1="330.11" x2="574.54" y2="330.11" gradientTransform="translate(185.56 -140.43) rotate(15.76)" gradientUnits="userSpaceOnUse"><stop offset=".02" stop-color="#b76258"/><stop offset=".08" stop-color="#c5564d"/><stop offset=".11" stop-color="#d24d44"/><stop offset=".13" stop-color="#d9574d"/><stop offset=".16" stop-color="#e76a5d"/><stop offset=".2" stop-color="#f07567"/><stop offset=".24" stop-color="#f3796b"/><stop offset=".43" stop-color="#ee8565"/><stop offset=".61" stop-color="#f4806d"/><stop offset=".89" stop-color="#f0976a"/><stop offset=".96" stop-color="#f7af7f"/><stop offset="1" stop-color="#fcbf8d"/></linearGradient><linearGradient id="Peach-2" x1="411.58" y1="437.02" x2="676.38" y2="437.02" xlink:href="#Peach"/><linearGradient id="Peach-3" x1="737.48" y1="325.02" x2="788.41" y2="325.02" xlink:href="#Peach"/><linearGradient id="Peach-4" x1="722.22" y1="249.84" x2="768.04" y2="249.84" xlink:href="#Peach"/><linearGradient id="Peach-5" x1="722.22" y1="400.19" x2="768.05" y2="400.19" xlink:href="#Peach"/><linearGradient id="Peach-6" x1="574.53" y1="325.01" x2="717.12" y2="325.01" xlink:href="#Peach"/><linearGradient id="Peach-7" x1="411.58" y1="732.4" x2="676.38" y2="732.4" xlink:href="#Peach"/></defs><path class="cls-7" d="m635.5,324.29c2.83-10.03,11.32-16.94,21.03-18.29l4.73-16.77-64.34,3-19.37,68.61,58.81,16.6,7.5-26.58c-7.57-6.23-11.2-16.54-8.36-26.58h0Z"/><path class="cls-6" d="m667.27,417.89l-137.22-38.74-75.41,42.21,254.84,71.94-42.21-75.41Z"/><path class="cls-5" d="m843.46,393.58l-29.41-8.3c-5.42-1.53-8.57-7.15-7.04-12.57,1.53-5.42,7.15-8.57,12.57-7.04l29.41,8.3c5.42,1.53,8.57,7.15,7.04,12.57-1.53,5.42-7.15,8.57-12.57,7.04h0Z"/><path class="cls-2" d="m818.08,314.85c-3.62-1.02-6.51-4-7.25-7.94-1.05-5.53,2.61-10.85,8.13-11.88l27.93-5.21c5.52-1.05,10.83,2.62,11.87,8.14,1.02,5.52-2.61,10.85-8.15,11.88l-27.91,5.22c-1.59.3-3.17.2-4.63-.21h0Z"/><path class="cls-1" d="m801.72,466.46c-1.47-.41-2.85-1.15-4.05-2.24l-21.09-19.05c-4.17-3.77-4.5-10.22-.72-14.38,3.77-4.19,10.19-4.52,14.39-.73l21.06,19.04c4.18,3.77,4.49,10.21.73,14.39-2.68,2.98-6.73,3.99-10.33,2.97h0Z"/><path class="cls-4" d="m780.38,354.61l-73.42-20.72,75.31-12.25c5.54-.9,9.31-6.13,8.41-11.69-.65-4.02-3.6-7.13-7.29-8.17-1.38-.39-2.88-.49-4.39-.25,0,0-121.6,20-121.87,20.1-3.22.97-5.96,3.34-6.94,6.81-.98,3.48.11,6.93,2.35,9.44.18.21,93.37,80.85,93.37,80.85,1.17,1,2.5,1.7,3.88,2.08,3.69,1.04,7.83-.05,10.49-3.14,3.67-4.27,3.2-10.7-1.06-14.36l-57.79-49.82,73.42,20.72c5.42,1.53,11.04-1.62,12.57-7.04s-1.62-11.03-7.04-12.56h0Z"/><path class="cls-3" d="m446.33,450.8l-127.27,450.88,254.84,71.94,127.27-450.88-254.84-71.94Zm44.44,329.98c-37.9-10.7-59.94-50.09-49.24-87.99,10.7-37.89,50.09-59.94,87.98-49.24,37.89,10.7,59.94,50.09,49.24,87.98-10.71,37.89-50.09,59.95-87.98,49.25h0Z"/></svg>